<?xml version="1.0" standalone="no"?>
<!DOCTYPE svg PUBLIC "-//W3C//DTD SVG 20010904//EN"
 "http://www.w3.org/TR/2001/REC-SVG-20010904/DTD/svg10.dtd">
<svg version="1.0" xmlns="http://www.w3.org/2000/svg"
 width="512.000000pt" height="512.000000pt" viewBox="0 0 512.000000 512.000000"
 preserveAspectRatio="xMidYMid meet">

<g transform="translate(0.000000,512.000000) scale(0.100000,-0.100000)"
fill="#000000" stroke="none">
<path d="M1833 4844 c-149 -53 -220 -233 -150 -376 34 -69 88 -114 165 -138
l57 -18 3 -728 c2 -476 -1 -753 -8 -799 -6 -38 -23 -97 -39 -130 -15 -33 -302
-508 -637 -1055 -456 -746 -612 -1009 -623 -1050 -13 -49 -12 -61 3 -112 19
-67 61 -120 120 -151 l41 -22 1795 0 1795 0 42 22 c55 30 100 87 119 151 18
62 12 113 -20 175 -13 23 -290 479 -616 1012 -326 534 -606 997 -621 1030 -16
33 -33 92 -39 130 -7 46 -10 323 -8 799 l3 728 61 19 c201 62 255 319 97 458
-83 73 -56 71 -817 70 -574 0 -688 -3 -723 -15z m1420 -118 c45 -18 84 -67 92
-116 9 -54 -26 -126 -75 -155 -34 -20 -51 -20 -710 -20 -659 0 -676 0 -710 20
-49 29 -84 101 -75 155 8 48 46 97 90 116 45 20 1341 20 1388 0z m-160 -1193
c3 -711 5 -783 21 -838 24 -82 38 -107 202 -376 79 -130 144 -241 144 -247 0
-9 -92 -46 -180 -71 -131 -38 -324 -43 -455 -11 -49 11 -155 52 -251 96 -182
83 -301 118 -434 129 -98 8 -241 -6 -350 -34 -41 -10 -76 -18 -77 -17 -1 1 50
87 114 191 64 105 127 214 141 243 58 127 56 92 59 935 l4 777 529 0 529 0 4
-777z m-908 -1444 c108 -15 189 -42 345 -114 221 -103 315 -127 495 -128 135
0 252 22 398 73 61 22 112 38 113 37 17 -17 860 -1411 867 -1432 13 -42 -12
-99 -55 -125 -33 -20 -45 -20 -1788 -20 -1743 0 -1755 0 -1788 20 -38 24 -66
80 -57 119 3 14 205 352 448 751 l443 724 56 23 c170 68 362 95 523 72z"/>
</g>
</svg>
